<?xml version="1.0" encoding="utf-8"?>
<!-- Generator: Adobe Illustrator 18.0.0, SVG Export Plug-In . SVG Version: 6.00 Build 0)  -->
<!DOCTYPE svg PUBLIC "-//W3C//DTD SVG 1.1//EN" "http://www.w3.org/Graphics/SVG/1.1/DTD/svg11.dtd">
<svg version="1.1" id="图层_1" xmlns="http://www.w3.org/2000/svg" xmlns:xlink="http://www.w3.org/1999/xlink" x="0px" y="0px"
	 viewBox="0 0 960 560" enable-background="new 0 0 960 560" xml:space="preserve">
<g>
	<path fill-rule="evenodd" clip-rule="evenodd" fill="#FFAF7F" d="M542.2,367.5c0,0,0.1-89.7,0.1-101.8c0-37.9-28.2-68.6-62.9-68.6
		c-34.7,0-62.9,30.7-62.9,68.6c0,12,0.1,101.8,0.1,101.8H542.2L542.2,367.5z"/>
	<path fill-rule="evenodd" clip-rule="evenodd" fill="#FF9175" d="M499,235.5v-33.2c0-0.5,0.1-1,0.2-1.5c6.2,2.2,11.9,5.5,17.1,9.6
		v26.3c0,1.6-0.7,3.1-1.7,4c4.4,3.9,7.2,9.6,7.2,16l40.7,198.8H396.3c0-0.3,39.5-198.8,39.5-198.8c0-6.4,2.8-12.1,7.2-16
		c-1.1-0.9-1.7-2.4-1.7-4v-25.4c5.2-4.3,10.9-7.7,17.2-10.1c0.1,0.4,0.1,0.7,0.1,1.1v33.2H499L499,235.5z"/>
	<polygon fill-rule="evenodd" clip-rule="evenodd" fill="#FF7562" points="503.4,250.4 454.2,250.4 454.2,285.3 503.4,285.3 
		503.4,250.4 	"/>
	<path fill-rule="evenodd" clip-rule="evenodd" fill="#616161" d="M479.4,173.5c0,0,23.9-2.9,40-11.1c10.9-5.6,13.3-16,13.3-20.5
		c0-34.9-22.4-63.3-53.3-63.3s-53,28.3-53,63.3c0,4.7-1.2,13.8,9.8,20.5C455.8,174.1,479.4,173.5,479.4,173.5L479.4,173.5z"/>
	<path fill-rule="evenodd" clip-rule="evenodd" fill="#616161" d="M439.9,116.7c0,0-1.6-21.6-6.4-27.4c-4.5-5.4-12.5-6-17.9-1.5
		c-5.4,4.5-6,12.5-1.5,17.9C418.9,111.4,439.9,116.7,439.9,116.7L439.9,116.7z M518.8,116.7c0,0,1.6-21.6,6.4-27.4
		c4.5-5.4,12.5-6,17.9-1.5c5.4,4.5,6,12.5,1.5,17.9C539.8,111.4,518.8,116.7,518.8,116.7L518.8,116.7z"/>
	<path fill-rule="evenodd" clip-rule="evenodd" fill="#FFDEA2" d="M472,201.1c0-3.5,0.1-15.2,0.1-15.2s4.9,0.7,7.4,0.7
		c2.5,0,7.5-0.7,7.5-0.7s-0.1,11.8-0.1,15.2c0,4.1-3.3,7.4-7.4,7.4C475.3,208.5,472,205.2,472,201.1L472,201.1z"/>
	<path fill-rule="evenodd" clip-rule="evenodd" fill="#FFEDCC" d="M439.9,148.2c0-5.4,0.1-24.9,0.1-30.2c0-21.7,17.7-39.4,39.4-39.4
		c21.7,0,39.4,17.7,39.4,39.4c0,4.8-0.1,24.9-0.1,30.2c0,21.7-17.7,39.4-39.4,39.4C457.6,187.6,439.9,170,439.9,148.2L439.9,148.2z"
		/>
	<path fill-rule="evenodd" clip-rule="evenodd" fill="#616161" d="M464.7,80.5c4.6-1.8,9.7-2.9,15-2.9c20,0,36.6,14.4,39.6,33.2
		c-6,5.4-14.3,8.8-23.5,8.8c-18.2,0-33-13.2-33-29.4C462.9,86.8,463.5,83.6,464.7,80.5L464.7,80.5z"/>
	<path fill-rule="evenodd" clip-rule="evenodd" fill="#616161" d="M464.4,80.5c3.7,3.7,6,8.8,6,14.4c0,11.2-9.2,20.4-20.5,20.4
		c-4.2,0-8.1-1.3-11.4-3.4C441.2,97.5,451.2,85.7,464.4,80.5L464.4,80.5z"/>
	<path fill-rule="evenodd" clip-rule="evenodd" fill="#FFFFFF" d="M462.7,125c6.8,0,12.4,5.5,12.4,12.4c0,6.8-5.5,12.4-12.4,12.4
		c-6.8,0-12.4-5.5-12.4-12.4C450.4,130.5,455.9,125,462.7,125L462.7,125z"/>
	<path fill-rule="evenodd" clip-rule="evenodd" fill="#FFFFFF" d="M495.9,125c6.8,0,12.4,5.5,12.4,12.4c0,6.8-5.5,12.4-12.4,12.4
		c-6.8,0-12.4-5.5-12.4-12.4C483.5,130.5,489.1,125,495.9,125L495.9,125z"/>
	<path fill-rule="evenodd" clip-rule="evenodd" fill="#616161" d="M462.7,134.4c1.6,0,2.9,1.3,2.9,2.9c0,1.6-1.3,2.9-2.9,2.9
		c-1.6,0-2.9-1.3-2.9-2.9C459.8,135.7,461.1,134.4,462.7,134.4L462.7,134.4z"/>
	<path fill-rule="evenodd" clip-rule="evenodd" fill="#616161" d="M495.9,134.4c1.6,0,2.9,1.3,2.9,2.9c0,1.6-1.3,2.9-2.9,2.9
		c-1.6,0-2.9-1.3-2.9-2.9C493,135.7,494.3,134.4,495.9,134.4L495.9,134.4z"/>
	<path fill-rule="evenodd" clip-rule="evenodd" fill="#FFD889" d="M479.4,140.3c0,0-5.9,9.9-5.9,14.1c0,3.3,2.6,5.9,5.9,5.9
		c3.3,0,5.9-2.6,5.9-5.9C485.3,150.2,479.4,140.3,479.4,140.3L479.4,140.3z"/>
	<path fill-rule="evenodd" clip-rule="evenodd" fill="#FFFFFF" d="M471.9,173.6h14.9c0,0-3.3,7.5-7.5,7.5
		C475.3,181,471.9,173.6,471.9,173.6L471.9,173.6z"/>
	<path fill-rule="evenodd" clip-rule="evenodd" fill="#FFD2BD" d="M440.1,152c2.1-1.7,4.8-2.8,7.7-2.8c6.6,0,12,5.4,12,12
		c0,6.3-4.8,11.4-10.9,12C444.1,167.3,440.9,160,440.1,152L440.1,152z M509.8,173.2c-6.1-0.6-10.8-5.7-10.8-12c0-6.6,5.4-12,12-12
		c2.9,0,5.5,1,7.6,2.7C517.8,160,514.6,167.3,509.8,173.2L509.8,173.2z"/>
	<path fill-rule="evenodd" clip-rule="evenodd" fill="#FFFFFF" d="M444,233.2c3.4,0,6.1,2.8,6.1,6.1s-2.8,6.1-6.1,6.1
		c-3.4,0-6.1-2.8-6.1-6.1S440.6,233.2,444,233.2L444,233.2z"/>
	<path fill-rule="evenodd" clip-rule="evenodd" fill="#FFFFFF" d="M513.2,233.2c3.4,0,6.1,2.8,6.1,6.1s-2.8,6.1-6.1,6.1
		c-3.4,0-6.1-2.8-6.1-6.1S509.8,233.2,513.2,233.2L513.2,233.2z"/>
</g>
</svg>
